<?xml version="1.0" encoding="UTF-8"?>
<svg id="_レイヤー_1" data-name="レイヤー 1" xmlns="http://www.w3.org/2000/svg" viewBox="0 0 32 32">
  <defs>
    <style>
      .cls-1 {
        fill: #650d0d;
      }

      .cls-2 {
        fill: #fdfbf5;
      }
    </style>
  </defs>
  <rect class="cls-2" y="0" width="32" height="32"/>
  <g>
    <path class="cls-1" d="M5.44,15.91v-.93c0-1.12-.02-2.03-.07-2.73.17.03.33.04.47.04.12,0,.25-.01.38-.04-.03.71-.05,1.85-.05,3.41v.21c.13-.31.34-.55.62-.73.28-.18.6-.26.97-.26.46,0,.85.14,1.16.42.16.14.28.31.35.5.07.19.11.42.11.7,0,.09,0,.31-.02.67-.01.46-.02.77-.02.94,0,.57.02,1.08.05,1.51-.21-.03-.37-.04-.45-.04s-.21.01-.4.04c.02-.21.04-.6.06-1.2.02-.59.03-1.11.03-1.56,0-.48-.09-.84-.27-1.08-.1-.13-.23-.23-.39-.3-.16-.07-.33-.11-.51-.11-.23,0-.45.06-.64.17-.19.11-.34.27-.45.47-.08.14-.13.31-.15.51-.03.2-.04.5-.04.92,0,.94.02,1.67.05,2.18-.23-.03-.38-.04-.43-.04-.07,0-.21.01-.42.04.04-.7.07-1.94.07-3.71Z"/>
    <path class="cls-1" d="M11.6,15.98h-.1c.02-.17.03-.26.03-.28,0-.02-.01-.11-.03-.28.29-.19.55-.33.81-.42.25-.08.52-.13.8-.13.5,0,.89.13,1.18.41s.42.65.42,1.13c0,.09,0,.31-.02.66-.01.51-.02.85-.02,1.02,0,.54.02.86.05.96.05.18.16.26.34.26,0,0,.08,0,.21-.02v.19c-.23.1-.45.15-.66.15-.39,0-.62-.2-.68-.59-.44.48-.94.71-1.51.71-.42,0-.75-.11-.99-.33-.24-.22-.36-.52-.36-.89,0-.21.04-.4.11-.57.08-.17.18-.31.33-.41.13-.09.28-.17.46-.23.18-.06.44-.12.78-.17.36-.06.62-.12.78-.16s.3-.11.42-.2v-.02c0-.28,0-.45,0-.52,0-.07-.03-.16-.07-.28-.07-.21-.2-.38-.39-.51s-.4-.19-.65-.19-.5.06-.71.18c-.21.12-.38.3-.51.52ZM13.95,17.19l-.11.02c-.64.14-1.03.23-1.17.26-.13.04-.25.08-.35.14-.31.17-.46.44-.46.82,0,.27.08.48.25.65.17.17.38.25.65.25.22,0,.43-.06.64-.19.21-.12.38-.29.51-.5,0-.21,0-.38,0-.52v-.24l.02-.6v-.09Z"/>
    <path class="cls-1" d="M20.37,15.92h-.1c-.11-.21-.28-.39-.51-.52-.23-.13-.48-.2-.75-.2-.49,0-.88.19-1.2.58-.31.39-.47.88-.47,1.48s.17,1.13.51,1.52c.34.4.77.6,1.29.6.27,0,.51-.05.73-.15.22-.1.44-.26.65-.47l.08.02c-.03.13-.04.23-.04.31,0,.05,0,.09,0,.13-.44.35-.99.53-1.64.53-.75,0-1.34-.22-1.79-.66-.45-.44-.67-1.03-.67-1.77s.24-1.33.71-1.77c.48-.45,1.11-.67,1.91-.67.29,0,.55.03.77.09.22.06.46.16.72.3-.09.18-.17.4-.21.65Z"/>
    <path class="cls-1" d="M24.3,14.88c.74,0,1.31.22,1.72.66.41.44.61,1.05.61,1.83,0,.71-.22,1.29-.66,1.73-.44.44-1.02.66-1.74.66s-1.31-.22-1.74-.66c-.44-.44-.65-1.03-.65-1.77s.22-1.35.66-1.79c.44-.44,1.04-.65,1.8-.65ZM24.24,15.19c-.48,0-.85.19-1.12.56-.27.38-.41.89-.41,1.56s.14,1.18.41,1.56.65.57,1.12.57.83-.19,1.11-.57.41-.89.41-1.52c0-.7-.13-1.24-.39-1.61-.26-.37-.64-.55-1.13-.55Z"/>
  </g>
</svg>